<svg width="36" height="36" viewBox="0 0 36 36" fill="none" xmlns="http://www.w3.org/2000/svg">
<g clip-path="url(#clip0_16_10)">
<path opacity="0.8" d="M18.0003 32.0625C17.5127 32.0625 17.03 31.9713 16.5795 31.7942C16.1291 31.6171 15.7198 31.3576 15.375 31.0303C14.6787 30.3694 14.2876 29.4731 14.2876 28.5384C14.2876 24.8822 15.8847 21.3609 18.7826 18.5991C21.5323 15.9778 25.0199 14.4759 28.3474 14.4759C28.835 14.4759 29.3178 14.5671 29.7682 14.7442C30.2187 14.9213 30.628 15.1809 30.9727 15.5081C31.3175 15.8354 31.591 16.2238 31.7775 16.6514C31.9641 17.079 32.0602 17.5372 32.0602 18C32.0602 18.4628 31.9641 18.921 31.7775 19.3486C31.591 19.7762 31.3175 20.1646 30.9727 20.4919C30.628 20.8191 30.2187 21.0787 29.7682 21.2558C29.3178 21.4329 28.835 21.5241 28.3474 21.5241C25.728 21.5241 21.716 24.6656 21.716 28.5384C21.716 29.0015 21.6199 29.4599 21.4331 29.8877C21.2464 30.3154 20.9726 30.704 20.6275 31.0313C20.2825 31.3586 19.8728 31.6181 19.422 31.7951C18.9712 31.972 18.4881 32.0629 18.0003 32.0625V32.0625Z" fill="url(#paint0_linear_16_10)"/>
<path opacity="0.8" d="M18.0003 32.0625C17.5127 32.0625 17.03 31.9713 16.5795 31.7942C16.1291 31.6171 15.7198 31.3576 15.375 31.0303C14.6787 30.3694 14.2876 29.4731 14.2876 28.5384C14.2876 24.6656 10.2696 21.5241 7.65025 21.5241C6.66557 21.5241 5.72121 21.1528 5.02494 20.4919C4.32866 19.831 3.9375 18.9346 3.9375 18C3.9375 17.0654 4.32866 16.169 5.02494 15.5081C5.72121 14.8472 6.66557 14.4759 7.65025 14.4759C10.9808 14.4759 14.4654 15.9778 17.2151 18.5991C20.116 21.375 21.716 24.8906 21.716 28.5384C21.716 29.0015 21.6199 29.4599 21.4331 29.8877C21.2464 30.3154 20.9726 30.704 20.6275 31.0313C20.2825 31.3586 19.8728 31.6181 19.422 31.7951C18.9712 31.972 18.4881 32.0629 18.0003 32.0625V32.0625Z" fill="url(#paint1_linear_16_10)"/>
<path opacity="0.8" d="M28.3474 21.5241C25.0199 21.5241 21.5323 20.0222 18.7826 17.4009C15.8847 14.6391 14.2876 11.1094 14.2876 7.46156C14.2876 6.52692 14.6787 5.63056 15.375 4.96967C16.0713 4.30878 17.0156 3.9375 18.0003 3.9375C18.985 3.9375 19.9293 4.30878 20.6256 4.96967C21.3219 5.63056 21.7131 6.52692 21.7131 7.46156C21.716 11.3344 25.728 14.4759 28.3474 14.4759C28.835 14.4759 29.3178 14.5671 29.7682 14.7442C30.2187 14.9213 30.628 15.1809 30.9727 15.5081C31.3175 15.8353 31.591 16.2238 31.7775 16.6514C31.9641 17.079 32.0602 17.5372 32.0602 18C32.0602 18.4628 31.9641 18.921 31.7775 19.3486C31.591 19.7762 31.3175 20.1646 30.9727 20.4919C30.628 20.8191 30.2187 21.0787 29.7682 21.2558C29.3178 21.4329 28.835 21.5241 28.3474 21.5241V21.5241Z" fill="url(#paint2_linear_16_10)"/>
<path opacity="0.8" d="M7.65025 21.5241C6.66557 21.5241 5.72121 21.1528 5.02494 20.4919C4.32866 19.831 3.9375 18.9346 3.9375 18C3.9375 17.0654 4.32866 16.169 5.02494 15.5081C5.72121 14.8472 6.66557 14.4759 7.65025 14.4759C10.2696 14.4759 14.2876 11.3344 14.2876 7.46156C14.2876 6.52692 14.6787 5.63056 15.375 4.96967C16.0713 4.30878 17.0156 3.9375 18.0003 3.9375C18.985 3.9375 19.9293 4.30878 20.6256 4.96967C21.3219 5.63056 21.7131 6.52692 21.7131 7.46156C21.7131 11.1178 20.116 14.6391 17.2151 17.4009C14.4683 20.0222 10.9808 21.5241 7.65025 21.5241V21.5241Z" fill="url(#paint3_linear_16_10)"/>
</g>
<defs>
<linearGradient id="paint0_linear_16_10" x1="14.2876" y1="23.2678" x2="32.0631" y2="23.2678" gradientUnits="userSpaceOnUse">
<stop stop-color="#1EEDC4"/>
<stop offset="1" stop-color="#1E9EED"/>
</linearGradient>
<linearGradient id="paint1_linear_16_10" x1="8.92141" y1="16.6641" x2="17.7661" y2="29.0884" gradientUnits="userSpaceOnUse">
<stop stop-color="#1E9EED"/>
<stop offset="1" stop-color="#090380"/>
</linearGradient>
<linearGradient id="paint2_linear_16_10" x1="18.8211" y1="10.1391" x2="33.413" y2="27.0492" gradientUnits="userSpaceOnUse">
<stop stop-color="#1E9EED"/>
<stop offset="1" stop-color="#090380"/>
</linearGradient>
<linearGradient id="paint3_linear_16_10" x1="15.3128" y1="10.4006" x2="9.9761" y2="19.345" gradientUnits="userSpaceOnUse">
<stop stop-color="#1EEDC4"/>
<stop offset="1" stop-color="#1E9EED"/>
</linearGradient>
<clipPath id="clip0_16_10">
<rect width="28.125" height="28.125" fill="white" transform="translate(3.9375 3.9375)"/>
</clipPath>
</defs>
</svg>
